<svg width="265" height="55" viewBox="0 0 265 55" fill="none" xmlns="http://www.w3.org/2000/svg">
<path d="M6.95116 10.3341C6.45755 8.17209 4.56417 6.89347 2.72216 7.47818C0.880157 8.06289 -0.212938 10.2895 0.280666 12.4515L9.21815 51.5974C9.71176 53.7594 11.6051 55.038 13.4471 54.4533C15.2892 53.8686 16.3822 51.6419 15.8886 49.48L6.95116 10.3341Z" fill="#58D68D"/>
<path d="M23.7386 1.0119L10.3532 5.31235C8.61374 5.87119 7.58207 7.9969 8.04886 10.0603C8.51565 12.1236 10.3041 13.3433 12.0436 12.7844L25.429 8.48398C27.1684 7.92514 28.2001 5.79943 27.7333 3.73607C27.2665 1.67271 25.478 0.453056 23.7386 1.0119Z" fill="#58D68D"/>
<path d="M24.239 20.8966L14.7734 23.9519C13.0309 24.5144 11.9975 26.6531 12.4654 28.7289C12.9333 30.8046 14.7252 32.0314 16.4677 31.4689L25.9333 28.4136C27.6758 27.8511 28.7092 25.7124 28.2413 23.6366C27.7734 21.5609 25.9815 20.3341 24.239 20.8966Z" fill="#58D68D"/>
<path d="M32.5697 38.3938L19.1843 42.6942C17.4449 43.2531 16.4132 45.3788 16.88 47.4422C17.3468 49.5055 19.1353 50.7252 20.8747 50.1663L34.2601 45.8659C35.9995 45.307 37.0312 43.1813 36.5644 41.118C36.0976 39.0546 34.3091 37.835 32.5697 38.3938Z" fill="#58D68D"/>
<path d="M49.268 34.24L53.624 19.912H60.176L53.048 40H45.452L38.324 19.912H44.912L49.268 34.24ZM81.7032 29.632C81.7032 30.208 81.6672 30.808 81.5952 31.432H67.6632C67.7592 32.68 68.1552 33.64 68.8512 34.312C69.5712 34.96 70.4472 35.284 71.4792 35.284C73.0152 35.284 74.0832 34.636 74.6832 33.34H81.2352C80.8992 34.66 80.2872 35.848 79.3992 36.904C78.5352 37.96 77.4432 38.788 76.1232 39.388C74.8032 39.988 73.3272 40.288 71.6952 40.288C69.7272 40.288 67.9752 39.868 66.4392 39.028C64.9032 38.188 63.7032 36.988 62.8392 35.428C61.9752 33.868 61.5432 32.044 61.5432 29.956C61.5432 27.868 61.9632 26.044 62.8032 24.484C63.6672 22.924 64.8672 21.724 66.4032 20.884C67.9392 20.044 69.7032 19.624 71.6952 19.624C73.6392 19.624 75.3672 20.032 76.8792 20.848C78.3912 21.664 79.5672 22.828 80.4072 24.34C81.2712 25.852 81.7032 27.616 81.7032 29.632ZM75.4032 28.012C75.4032 26.956 75.0432 26.116 74.3232 25.492C73.6032 24.868 72.7032 24.556 71.6232 24.556C70.5912 24.556 69.7152 24.856 68.9952 25.456C68.2992 26.056 67.8672 26.908 67.6992 28.012H75.4032ZM97.1908 19.696C99.5428 19.696 101.415 20.464 102.807 22C104.223 23.512 104.931 25.6 104.931 28.264V40H98.8108V29.092C98.8108 27.748 98.4628 26.704 97.7668 25.96C97.0708 25.216 96.1348 24.844 94.9588 24.844C93.7828 24.844 92.8468 25.216 92.1508 25.96C91.4548 26.704 91.1068 27.748 91.1068 29.092V40H84.9508V19.912H91.1068V22.576C91.7308 21.688 92.5708 20.992 93.6268 20.488C94.6828 19.96 95.8708 19.696 97.1908 19.696ZM120.405 34.78V40H117.273C115.041 40 113.301 39.46 112.053 38.38C110.805 37.276 110.181 35.488 110.181 33.016V25.024H107.733V19.912H110.181V15.016H116.337V19.912H120.369V25.024H116.337V33.088C116.337 33.688 116.481 34.12 116.769 34.384C117.057 34.648 117.537 34.78 118.209 34.78H120.405ZM132.978 40.288C131.01 40.288 129.234 39.868 127.65 39.028C126.09 38.188 124.854 36.988 123.942 35.428C123.054 33.868 122.61 32.044 122.61 29.956C122.61 27.892 123.066 26.08 123.978 24.52C124.89 22.936 126.138 21.724 127.722 20.884C129.306 20.044 131.082 19.624 133.05 19.624C135.018 19.624 136.794 20.044 138.378 20.884C139.962 21.724 141.21 22.936 142.122 24.52C143.034 26.08 143.49 27.892 143.49 29.956C143.49 32.02 143.022 33.844 142.086 35.428C141.174 36.988 139.914 38.188 138.306 39.028C136.722 39.868 134.946 40.288 132.978 40.288ZM132.978 34.96C134.154 34.96 135.15 34.528 135.966 33.664C136.806 32.8 137.226 31.564 137.226 29.956C137.226 28.348 136.818 27.112 136.002 26.248C135.21 25.384 134.226 24.952 133.05 24.952C131.85 24.952 130.854 25.384 130.062 26.248C129.27 27.088 128.874 28.324 128.874 29.956C128.874 31.564 129.258 32.8 130.026 33.664C130.818 34.528 131.802 34.96 132.978 34.96ZM172.387 19.696C174.883 19.696 176.863 20.452 178.327 21.964C179.815 23.476 180.559 25.576 180.559 28.264V40H174.439V29.092C174.439 27.796 174.091 26.8 173.395 26.104C172.723 25.384 171.787 25.024 170.587 25.024C169.387 25.024 168.439 25.384 167.743 26.104C167.071 26.8 166.735 27.796 166.735 29.092V40H160.615V29.092C160.615 27.796 160.267 26.8 159.571 26.104C158.899 25.384 157.963 25.024 156.763 25.024C155.563 25.024 154.615 25.384 153.919 26.104C153.247 26.8 152.911 27.796 152.911 29.092V40H146.755V19.912H152.911V22.432C153.535 21.592 154.351 20.932 155.359 20.452C156.367 19.948 157.507 19.696 158.779 19.696C160.291 19.696 161.635 20.02 162.811 20.668C164.011 21.316 164.947 22.24 165.619 23.44C166.315 22.336 167.263 21.436 168.463 20.74C169.663 20.044 170.971 19.696 172.387 19.696ZM183.641 29.92C183.641 27.856 184.025 26.044 184.793 24.484C185.585 22.924 186.653 21.724 187.997 20.884C189.341 20.044 190.841 19.624 192.497 19.624C193.913 19.624 195.149 19.912 196.205 20.488C197.285 21.064 198.113 21.82 198.689 22.756V19.912H204.845V40H198.689V37.156C198.089 38.092 197.249 38.848 196.169 39.424C195.113 40 193.877 40.288 192.461 40.288C190.829 40.288 189.341 39.868 187.997 39.028C186.653 38.164 185.585 36.952 184.793 35.392C184.025 33.808 183.641 31.984 183.641 29.92ZM198.689 29.956C198.689 28.42 198.257 27.208 197.393 26.32C196.553 25.432 195.521 24.988 194.297 24.988C193.073 24.988 192.029 25.432 191.165 26.32C190.325 27.184 189.905 28.384 189.905 29.92C189.905 31.456 190.325 32.68 191.165 33.592C192.029 34.48 193.073 34.924 194.297 34.924C195.521 34.924 196.553 34.48 197.393 33.592C198.257 32.704 198.689 31.492 198.689 29.956ZM221.538 19.696C223.89 19.696 225.762 20.464 227.154 22C228.57 23.512 229.278 25.6 229.278 28.264V40H223.158V29.092C223.158 27.748 222.81 26.704 222.114 25.96C221.418 25.216 220.482 24.844 219.306 24.844C218.13 24.844 217.194 25.216 216.498 25.96C215.802 26.704 215.454 27.748 215.454 29.092V40H209.298V19.912H215.454V22.576C216.078 21.688 216.918 20.992 217.974 20.488C219.03 19.96 220.218 19.696 221.538 19.696ZM236.652 17.824C235.572 17.824 234.684 17.512 233.988 16.888C233.316 16.24 232.98 15.448 232.98 14.512C232.98 13.552 233.316 12.76 233.988 12.136C234.684 11.488 235.572 11.164 236.652 11.164C237.708 11.164 238.572 11.488 239.244 12.136C239.94 12.76 240.288 13.552 240.288 14.512C240.288 15.448 239.94 16.24 239.244 16.888C238.572 17.512 237.708 17.824 236.652 17.824ZM239.712 19.912V40H233.556V19.912H239.712ZM242.949 29.92C242.949 27.856 243.333 26.044 244.101 24.484C244.893 22.924 245.961 21.724 247.305 20.884C248.649 20.044 250.149 19.624 251.805 19.624C253.221 19.624 254.457 19.912 255.513 20.488C256.593 21.064 257.421 21.82 257.997 22.756V19.912H264.153V40H257.997V37.156C257.397 38.092 256.557 38.848 255.477 39.424C254.421 40 253.185 40.288 251.769 40.288C250.137 40.288 248.649 39.868 247.305 39.028C245.961 38.164 244.893 36.952 244.101 35.392C243.333 33.808 242.949 31.984 242.949 29.92ZM257.997 29.956C257.997 28.42 257.565 27.208 256.701 26.32C255.861 25.432 254.829 24.988 253.605 24.988C252.381 24.988 251.337 25.432 250.473 26.32C249.633 27.184 249.213 28.384 249.213 29.92C249.213 31.456 249.633 32.68 250.473 33.592C251.337 34.48 252.381 34.924 253.605 34.924C254.829 34.924 255.861 34.48 256.701 33.592C257.565 32.704 257.997 31.492 257.997 29.956Z" fill="#003BB1"/>
<path d="M49.268 34.24L48.5504 34.4582L49.268 36.8184L49.9856 34.4582L49.268 34.24ZM53.624 19.912V19.162H53.0681L52.9064 19.6938L53.624 19.912ZM60.176 19.912L60.8828 20.1628L61.2379 19.162H60.176V19.912ZM53.048 40V40.75H53.5777L53.7548 40.2508L53.048 40ZM45.452 40L44.7452 40.2508L44.9223 40.75H45.452V40ZM38.324 19.912V19.162H37.2621L37.6172 20.1628L38.324 19.912ZM44.912 19.912L45.6296 19.6938L45.4679 19.162H44.912V19.912ZM49.9856 34.4582L54.3416 20.1302L52.9064 19.6938L48.5504 34.0218L49.9856 34.4582ZM53.624 20.662H60.176V19.162H53.624V20.662ZM59.4692 19.6612L52.3412 39.7492L53.7548 40.2508L60.8828 20.1628L59.4692 19.6612ZM53.048 39.25H45.452V40.75H53.048V39.25ZM46.1588 39.7492L39.0308 19.6612L37.6172 20.1628L44.7452 40.2508L46.1588 39.7492ZM38.324 20.662H44.912V19.162H38.324V20.662ZM44.1944 20.1302L48.5504 34.4582L49.9856 34.0218L45.6296 19.6938L44.1944 20.1302ZM81.5952 31.432V32.182H82.2636L82.3402 31.518L81.5952 31.432ZM67.6632 31.432V30.682H66.8532L66.9154 31.4895L67.6632 31.432ZM68.8512 34.312L68.3302 34.8516L68.3397 34.8607L68.3494 34.8695L68.8512 34.312ZM74.6832 33.34V32.59H74.2039L74.0026 33.0249L74.6832 33.34ZM81.2352 33.34L81.962 33.525L82.2 32.59H81.2352V33.34ZM79.3992 36.904L78.8251 36.4213L78.8187 36.4291L79.3992 36.904ZM76.1232 39.388L76.4335 40.0708L76.1232 39.388ZM66.4392 39.028L66.0793 39.686L66.0793 39.686L66.4392 39.028ZM62.8392 35.428L63.4952 35.0646L63.4952 35.0646L62.8392 35.428ZM62.8032 24.484L62.147 24.1206L62.1428 24.1284L62.8032 24.484ZM66.4032 20.884L66.763 21.542L66.763 21.542L66.4032 20.884ZM76.8792 20.848L76.523 21.508L76.523 21.508L76.8792 20.848ZM80.4072 24.34L79.7515 24.7043L79.756 24.7121L80.4072 24.34ZM75.4032 28.012V28.762H76.1532V28.012H75.4032ZM74.3232 25.492L74.8144 24.9252L74.8144 24.9252L74.3232 25.492ZM68.9952 25.456L68.515 24.8798L68.5055 24.8879L68.9952 25.456ZM67.6992 28.012L66.9577 27.8992L66.8264 28.762H67.6992V28.012ZM80.9532 29.632C80.9532 30.1768 80.9191 30.748 80.8501 31.346L82.3402 31.518C82.4152 30.868 82.4532 30.2392 82.4532 29.632H80.9532ZM81.5952 30.682H67.6632V32.182H81.5952V30.682ZM66.9154 31.4895C67.0212 32.8654 67.4671 34.0182 68.3302 34.8516L69.3721 33.7724C68.8432 33.2618 68.4971 32.4946 68.4109 31.3745L66.9154 31.4895ZM68.3494 34.8695C69.2167 35.65 70.2751 36.034 71.4792 36.034V34.534C70.6192 34.534 69.9256 34.27 69.3529 33.7545L68.3494 34.8695ZM71.4792 36.034C72.3529 36.034 73.1457 35.8491 73.8212 35.4392C74.5002 35.0272 75.0104 34.4184 75.3638 33.6551L74.0026 33.0249C73.7559 33.5576 73.4321 33.9208 73.0431 34.1568C72.6506 34.3949 72.1414 34.534 71.4792 34.534V36.034ZM74.6832 34.09H81.2352V32.59H74.6832V34.09ZM80.5083 33.155C80.2006 34.3641 79.6414 35.4506 78.8251 36.4213L79.9732 37.3867C80.9329 36.2454 81.5977 34.9559 81.962 33.525L80.5083 33.155ZM78.8187 36.4291C78.0321 37.3904 77.0347 38.1498 75.8128 38.7052L76.4335 40.0708C77.8516 39.4262 79.0382 38.5296 79.9796 37.3789L78.8187 36.4291ZM75.8128 38.7052C74.6018 39.2557 73.2336 39.538 71.6952 39.538V41.038C73.4207 41.038 75.0045 40.7203 76.4335 40.0708L75.8128 38.7052ZM71.6952 39.538C69.8371 39.538 68.2115 39.1424 66.799 38.37L66.0793 39.686C67.7388 40.5936 69.6173 41.038 71.6952 41.038V39.538ZM66.799 38.37C65.3901 37.5995 64.2918 36.5028 63.4952 35.0646L62.1831 35.7914C63.1145 37.4732 64.4162 38.7765 66.0793 39.686L66.799 38.37ZM63.4952 35.0646C62.7026 33.6335 62.2932 31.9387 62.2932 29.956H60.7932C60.7932 32.1493 61.2477 34.1025 62.1831 35.7914L63.4952 35.0646ZM62.2932 29.956C62.2932 27.9699 62.692 26.2723 63.4635 24.8396L62.1428 24.1284C61.2343 25.8157 60.7932 27.7661 60.7932 29.956H62.2932ZM63.4592 24.8474C64.2558 23.4092 65.3541 22.3125 66.763 21.542L66.0433 20.226C64.3802 21.1355 63.0785 22.4388 62.1471 24.1206L63.4592 24.8474ZM66.763 21.542C68.1742 20.7703 69.8114 20.374 71.6952 20.374V18.874C69.5949 18.874 67.7041 19.3177 66.0433 20.226L66.763 21.542ZM71.6952 20.374C73.5314 20.374 75.1341 20.7585 76.523 21.508L77.2354 20.188C75.6002 19.3055 73.747 18.874 71.6952 18.874V20.374ZM76.523 21.508C77.9081 22.2555 78.9806 23.3165 79.7515 24.7042L81.0628 23.9758C80.1537 22.3395 78.8742 21.0725 77.2354 20.188L76.523 21.508ZM79.756 24.7121C80.5456 26.094 80.9532 27.7257 80.9532 29.632H82.4532C82.4532 27.5063 81.9967 25.61 81.0583 23.9679L79.756 24.7121ZM76.1532 28.012C76.1532 26.7649 75.7177 25.7081 74.8144 24.9252L73.832 26.0588C74.3686 26.5239 74.6532 27.1471 74.6532 28.012H76.1532ZM74.8144 24.9252C73.9398 24.1672 72.8579 23.806 71.6232 23.806V25.306C72.5484 25.306 73.2666 25.5687 73.832 26.0588L74.8144 24.9252ZM71.6232 23.806C70.4347 23.806 69.3837 24.1559 68.515 24.8798L69.4753 26.0322C70.0466 25.5561 70.7476 25.306 71.6232 25.306V23.806ZM68.5055 24.8879C67.6463 25.6286 67.1466 26.6579 66.9577 27.8992L68.4406 28.1248C68.5877 27.1581 68.952 26.4834 69.4849 26.0241L68.5055 24.8879ZM67.6992 28.762H75.4032V27.262H67.6992V28.762ZM102.807 22L102.251 22.5037L102.259 22.5127L102.807 22ZM104.931 40V40.75H105.681V40H104.931ZM98.8108 40H98.0608V40.75H98.8108V40ZM97.7668 25.96L97.219 26.4724L97.219 26.4724L97.7668 25.96ZM92.1508 25.96L92.6985 26.4724L92.6985 26.4724L92.1508 25.96ZM91.1068 40V40.75H91.8568V40H91.1068ZM84.9508 40H84.2008V40.75H84.9508V40ZM84.9508 19.912V19.162H84.2008V19.912H84.9508ZM91.1068 19.912H91.8568V19.162H91.1068V19.912ZM91.1068 22.576H90.3568V24.9478L91.7204 23.0072L91.1068 22.576ZM93.6268 20.488L93.9499 21.165L93.9622 21.1588L93.6268 20.488ZM97.1908 20.446C99.3626 20.446 101.021 21.1465 102.251 22.5036L103.362 21.4964C101.808 19.7815 99.7229 18.946 97.1908 18.946V20.446ZM102.259 22.5127C103.511 23.8494 104.181 25.734 104.181 28.264H105.681C105.681 25.466 104.934 23.1746 103.354 21.4873L102.259 22.5127ZM104.181 28.264V40H105.681V28.264H104.181ZM104.931 39.25H98.8108V40.75H104.931V39.25ZM99.5608 40V29.092H98.0608V40H99.5608ZM99.5608 29.092C99.5608 27.6201 99.1775 26.3703 98.3145 25.4476L97.219 26.4724C97.748 27.0377 98.0608 27.8759 98.0608 29.092H99.5608ZM98.3145 25.4476C97.4543 24.5282 96.3073 24.094 94.9588 24.094V25.594C95.9622 25.594 96.6872 25.9038 97.219 26.4724L98.3145 25.4476ZM94.9588 24.094C93.6102 24.094 92.4632 24.5282 91.603 25.4476L92.6985 26.4724C93.2303 25.9038 93.9553 25.594 94.9588 25.594V24.094ZM91.603 25.4476C90.74 26.3703 90.3568 27.6201 90.3568 29.092H91.8568C91.8568 27.8759 92.1695 27.0377 92.6985 26.4724L91.603 25.4476ZM90.3568 29.092V40H91.8568V29.092H90.3568ZM91.1068 39.25H84.9508V40.75H91.1068V39.25ZM85.7008 40V19.912H84.2008V40H85.7008ZM84.9508 20.662H91.1068V19.162H84.9508V20.662ZM90.3568 19.912V22.576H91.8568V19.912H90.3568ZM91.7204 23.0072C92.2645 22.2329 93.0008 21.6178 93.9498 21.1649L93.3037 19.8111C92.1407 20.3662 91.197 21.1431 90.4931 22.1448L91.7204 23.0072ZM93.9622 21.1588C94.9023 20.6888 95.9733 20.446 97.1908 20.446V18.946C95.7682 18.946 94.4632 19.2312 93.2913 19.8172L93.9622 21.1588ZM120.405 34.78H121.155V34.03H120.405V34.78ZM120.405 40V40.75H121.155V40H120.405ZM112.053 38.38L111.556 38.9418L111.562 38.9471L112.053 38.38ZM110.181 25.024H110.931V24.274H110.181V25.024ZM107.733 25.024H106.983V25.774H107.733V25.024ZM107.733 19.912V19.162H106.983V19.912H107.733ZM110.181 19.912V20.662H110.931V19.912H110.181ZM110.181 15.016V14.266H109.431V15.016H110.181ZM116.337 15.016H117.087V14.266H116.337V15.016ZM116.337 19.912H115.587V20.662H116.337V19.912ZM120.369 19.912H121.119V19.162H120.369V19.912ZM120.369 25.024V25.774H121.119V25.024H120.369ZM116.337 25.024V24.274H115.587V25.024H116.337ZM116.769 34.384L116.262 34.9369L116.262 34.9369L116.769 34.384ZM119.655 34.78V40H121.155V34.78H119.655ZM120.405 39.25H117.273V40.75H120.405V39.25ZM117.273 39.25C115.157 39.25 113.613 38.7389 112.543 37.8129L111.562 38.9471C112.988 40.1811 114.924 40.75 117.273 40.75V39.25ZM112.549 37.8183C111.527 36.9139 110.931 35.3783 110.931 33.016H109.431C109.431 35.5977 110.082 37.6381 111.556 38.9417L112.549 37.8183ZM110.931 33.016V25.024H109.431V33.016H110.931ZM110.181 24.274H107.733V25.774H110.181V24.274ZM108.483 25.024V19.912H106.983V25.024H108.483ZM107.733 20.662H110.181V19.162H107.733V20.662ZM110.931 19.912V15.016H109.431V19.912H110.931ZM110.181 15.766H116.337V14.266H110.181V15.766ZM115.587 15.016V19.912H117.087V15.016H115.587ZM116.337 20.662H120.369V19.162H116.337V20.662ZM119.619 19.912V25.024H121.119V19.912H119.619ZM120.369 24.274H116.337V25.774H120.369V24.274ZM115.587 25.024V33.088H117.087V25.024H115.587ZM115.587 33.088C115.587 33.7865 115.752 34.4697 116.262 34.9369L117.275 33.8311C117.209 33.7703 117.087 33.5895 117.087 33.088H115.587ZM116.262 34.9369C116.758 35.3921 117.473 35.53 118.209 35.53V34.03C117.6 34.03 117.355 33.9039 117.275 33.8311L116.262 34.9369ZM118.209 35.53H120.405V34.03H118.209V35.53ZM127.65 39.028L127.294 39.6884L127.298 39.6906L127.65 39.028ZM123.942 35.428L123.29 35.799L123.294 35.8065L123.942 35.428ZM123.978 24.52L124.625 24.8985L124.628 24.8942L123.978 24.52ZM127.722 20.884L128.073 21.5466L128.073 21.5466L127.722 20.884ZM138.378 20.884L138.026 21.5466L138.026 21.5466L138.378 20.884ZM142.122 24.52L141.472 24.8942L141.474 24.8985L142.122 24.52ZM142.086 35.428L141.44 35.0464L141.438 35.0495L142.086 35.428ZM138.306 39.028L137.958 38.3632L137.954 38.3654L138.306 39.028ZM135.966 33.664L135.428 33.1411L135.42 33.149L135.966 33.664ZM136.002 26.248L135.449 26.7548L135.456 26.763L136.002 26.248ZM130.062 26.248L130.607 26.7626L130.614 26.7548L130.062 26.248ZM130.026 33.664L129.465 34.1623L129.473 34.1708L130.026 33.664ZM132.978 39.538C131.12 39.538 129.466 39.1425 128.001 38.3654L127.298 39.6906C129.001 40.5935 130.899 41.038 132.978 41.038V39.538ZM128.005 38.3676C126.569 37.5943 125.433 36.493 124.589 35.0495L123.294 35.8065C124.274 37.483 125.61 38.7817 127.294 39.6884L128.005 38.3676ZM124.593 35.057C123.78 33.6273 123.36 31.9353 123.36 29.956H121.86C121.86 32.1527 122.328 34.1087 123.29 35.799L124.593 35.057ZM123.36 29.956C123.36 28.0058 123.789 26.3281 124.625 24.8985L123.33 24.1415C122.342 25.8319 121.86 27.7782 121.86 29.956H123.36ZM124.628 24.8942C125.471 23.43 126.616 22.3191 128.073 21.5466L127.37 20.2214C125.659 21.1289 124.309 22.442 123.328 24.1458L124.628 24.8942ZM128.073 21.5466C129.538 20.7694 131.192 20.374 133.05 20.374V18.874C130.971 18.874 129.073 19.3185 127.37 20.2214L128.073 21.5466ZM133.05 20.374C134.907 20.374 136.561 20.7694 138.026 21.5466L138.729 20.2214C137.026 19.3185 135.128 18.874 133.05 18.874V20.374ZM138.026 21.5466C139.483 22.3191 140.629 23.43 141.472 24.8942L142.772 24.1458C141.791 22.442 140.44 21.1289 138.729 20.2214L138.026 21.5466ZM141.474 24.8985C142.31 26.3281 142.74 28.0058 142.74 29.956H144.24C144.24 27.7782 143.757 25.8319 142.769 24.1415L141.474 24.8985ZM142.74 29.956C142.74 31.9025 142.3 33.5916 141.44 35.0465L142.731 35.8095C143.744 34.0964 144.24 32.1375 144.24 29.956H142.74ZM141.438 35.0495C140.598 36.4872 139.442 37.5883 137.958 38.3632L138.653 39.6928C140.385 38.7877 141.75 37.4888 142.733 35.8065L141.438 35.0495ZM137.954 38.3654C136.489 39.1425 134.835 39.538 132.978 39.538V41.038C135.056 41.038 136.954 40.5935 138.657 39.6906L137.954 38.3654ZM132.978 35.71C134.362 35.71 135.555 35.1912 136.511 34.179L135.42 33.149C134.744 33.8648 133.945 34.21 132.978 34.21V35.71ZM136.503 34.1868C137.52 33.1411 137.976 31.6921 137.976 29.956H136.476C136.476 31.4359 136.091 32.4589 135.428 33.1412L136.503 34.1868ZM137.976 29.956C137.976 28.2254 137.535 26.7793 136.547 25.733L135.456 26.763C136.1 27.4446 136.476 28.4706 136.476 29.956H137.976ZM136.554 25.7412C135.62 24.7216 134.435 24.202 133.05 24.202V25.702C134.016 25.702 134.799 26.0464 135.449 26.7548L136.554 25.7412ZM133.05 24.202C131.645 24.202 130.447 24.7181 129.509 25.7412L130.614 26.7548C131.261 26.0499 132.054 25.702 133.05 25.702V24.202ZM129.516 25.7335C128.547 26.7613 128.124 28.212 128.124 29.956H129.624C129.624 28.436 129.992 27.4147 130.607 26.7625L129.516 25.7335ZM128.124 29.956C128.124 31.6759 128.534 33.1154 129.465 34.1623L130.586 33.1657C129.981 32.4846 129.624 31.4521 129.624 29.956H128.124ZM129.473 34.1708C130.407 35.1904 131.592 35.71 132.978 35.71V34.21C132.011 34.21 131.228 33.8656 130.578 33.1572L129.473 34.1708ZM178.327 21.964L177.789 22.4857L177.793 22.4901L178.327 21.964ZM180.559 40V40.75H181.309V40H180.559ZM174.439 40H173.689V40.75H174.439V40ZM173.395 26.104L172.847 26.6157L172.856 26.6252L172.865 26.6343L173.395 26.104ZM167.743 26.104L167.204 25.5827L167.204 25.5831L167.743 26.104ZM166.735 40V40.75H167.485V40H166.735ZM160.615 40H159.865V40.75H160.615V40ZM159.571 26.104L159.023 26.6157L159.032 26.6252L159.041 26.6343L159.571 26.104ZM153.919 26.104L153.38 25.5827L153.38 25.5831L153.919 26.104ZM152.911 40V40.75H153.661V40H152.911ZM146.755 40H146.005V40.75H146.755V40ZM146.755 19.912V19.162H146.005V19.912H146.755ZM152.911 19.912H153.661V19.162H152.911V19.912ZM152.911 22.432H152.161V24.6993L153.513 22.8792L152.911 22.432ZM155.359 20.452L155.682 21.1291L155.688 21.126L155.695 21.1228L155.359 20.452ZM162.811 20.668L162.449 21.3249L162.455 21.3279L162.811 20.668ZM165.619 23.44L164.965 23.8065L165.581 24.9069L166.254 23.84L165.619 23.44ZM172.387 20.446C174.721 20.446 176.492 21.1465 177.789 22.4857L178.866 21.4423C177.235 19.7575 175.046 18.946 172.387 18.946V20.446ZM177.793 22.4901C179.108 23.8268 179.809 25.7177 179.809 28.264H181.309C181.309 25.4343 180.522 23.1252 178.862 21.4379L177.793 22.4901ZM179.809 28.264V40H181.309V28.264H179.809ZM180.559 39.25H174.439V40.75H180.559V39.25ZM175.189 40V29.092H173.689V40H175.189ZM175.189 29.092C175.189 27.6625 174.803 26.4506 173.926 25.5737L172.865 26.6343C173.38 27.1494 173.689 27.9295 173.689 29.092H175.189ZM173.944 25.5923C173.1 24.6879 171.946 24.274 170.587 24.274V25.774C171.628 25.774 172.347 26.0801 172.847 26.6157L173.944 25.5923ZM170.587 24.274C169.228 24.274 168.069 24.688 167.204 25.5827L168.283 26.6253C168.81 26.08 169.547 25.774 170.587 25.774V24.274ZM167.204 25.5831C166.356 26.461 165.985 27.6693 165.985 29.092H167.485C167.485 27.9226 167.787 27.139 168.283 26.6249L167.204 25.5831ZM165.985 29.092V40H167.485V29.092H165.985ZM166.735 39.25H160.615V40.75H166.735V39.25ZM161.365 40V29.092H159.865V40H161.365ZM161.365 29.092C161.365 27.6625 160.979 26.4506 160.102 25.5737L159.041 26.6343C159.556 27.1494 159.865 27.9295 159.865 29.092H161.365ZM160.12 25.5923C159.276 24.6879 158.122 24.274 156.763 24.274V25.774C157.804 25.774 158.523 26.0801 159.023 26.6157L160.12 25.5923ZM156.763 24.274C155.404 24.274 154.245 24.688 153.38 25.5827L154.459 26.6253C154.986 26.08 155.723 25.774 156.763 25.774V24.274ZM153.38 25.5831C152.532 26.461 152.161 27.6693 152.161 29.092H153.661C153.661 27.9226 153.963 27.139 154.459 26.6249L153.38 25.5831ZM152.161 29.092V40H153.661V29.092H152.161ZM152.911 39.25H146.755V40.75H152.911V39.25ZM147.505 40V19.912H146.005V40H147.505ZM146.755 20.662H152.911V19.162H146.755V20.662ZM152.161 19.912V22.432H153.661V19.912H152.161ZM153.513 22.8792C154.06 22.1441 154.777 21.5601 155.682 21.1291L155.037 19.7749C153.926 20.3039 153.011 21.0399 152.309 21.9848L153.513 22.8792ZM155.695 21.1228C156.586 20.6772 157.609 20.446 158.779 20.446V18.946C157.406 18.946 156.149 19.2187 155.024 19.7812L155.695 21.1228ZM158.779 20.446C160.181 20.446 161.398 20.7453 162.449 21.3249L163.173 20.0111C161.873 19.2947 160.402 18.946 158.779 18.946V20.446ZM162.455 21.3279C163.529 21.9077 164.362 22.7294 164.965 23.8065L166.274 23.0735C165.533 21.7506 164.494 20.7243 163.168 20.0081L162.455 21.3279ZM166.254 23.84C166.881 22.845 167.738 22.0279 168.84 21.3888L168.087 20.0912C166.789 20.8441 165.75 21.827 164.985 23.04L166.254 23.84ZM168.84 21.3888C169.923 20.7605 171.101 20.446 172.387 20.446V18.946C170.842 18.946 169.404 19.3275 168.087 20.0912L168.84 21.3888ZM184.793 24.484L184.124 24.1445L184.12 24.1527L184.793 24.484ZM187.997 20.884L188.394 21.52L188.394 21.52L187.997 20.884ZM196.205 20.488L195.846 21.1464L195.852 21.1498L196.205 20.488ZM198.689 22.756L198.05 23.1491L199.439 25.4058V22.756H198.689ZM198.689 19.912V19.162H197.939V19.912H198.689ZM204.845 19.912H205.595V19.162H204.845V19.912ZM204.845 40V40.75H205.595V40H204.845ZM198.689 40H197.939V40.75H198.689V40ZM198.689 37.156H199.439V34.5962L198.057 36.7513L198.689 37.156ZM196.169 39.424L195.816 38.7622L195.81 38.7656L196.169 39.424ZM187.997 39.028L187.591 39.6589L187.599 39.664L187.997 39.028ZM184.793 35.392L184.118 35.7193L184.124 35.7315L184.793 35.392ZM197.393 26.32L196.848 26.8354L196.855 26.843L197.393 26.32ZM191.165 26.32L190.627 25.797L190.627 25.7972L191.165 26.32ZM191.165 33.592L190.613 34.1001L190.62 34.1077L190.627 34.115L191.165 33.592ZM197.393 33.592L196.855 33.0689L196.848 33.0766L197.393 33.592ZM184.391 29.92C184.391 27.9496 184.757 26.2547 185.466 24.8153L184.12 24.1527C183.293 25.8333 182.891 27.7624 182.891 29.92H184.391ZM185.462 24.8235C186.198 23.3722 187.178 22.2803 188.394 21.52L187.599 20.248C186.128 21.1677 184.971 22.4758 184.124 24.1445L185.462 24.8235ZM188.394 21.52C189.614 20.7579 190.975 20.374 192.497 20.374V18.874C190.707 18.874 189.068 19.3301 187.599 20.248L188.394 21.52ZM192.497 20.374C193.81 20.374 194.918 20.6403 195.846 21.1464L196.564 19.8296C195.38 19.1837 194.016 18.874 192.497 18.874V20.374ZM195.852 21.1498C196.828 21.6704 197.552 22.3389 198.05 23.1491L199.328 22.3629C198.674 21.3011 197.741 20.4576 196.558 19.8262L195.852 21.1498ZM199.439 22.756V19.912H197.939V22.756H199.439ZM198.689 20.662H204.845V19.162H198.689V20.662ZM204.095 19.912V40H205.595V19.912H204.095ZM204.845 39.25H198.689V40.75H204.845V39.25ZM199.439 40V37.156H197.939V40H199.439ZM198.057 36.7513C197.534 37.5685 196.794 38.2404 195.816 38.7622L196.522 40.0858C197.703 39.4556 198.644 38.6155 199.32 37.5607L198.057 36.7513ZM195.81 38.7656C194.882 39.2717 193.774 39.538 192.461 39.538V41.038C193.98 41.038 195.344 40.7283 196.528 40.0824L195.81 38.7656ZM192.461 39.538C190.965 39.538 189.615 39.1552 188.394 38.392L187.599 39.664C189.066 40.5808 190.693 41.038 192.461 41.038V39.538ZM188.402 38.3971C187.181 37.6119 186.199 36.5053 185.462 35.0525L184.124 35.7315C184.97 37.3987 186.125 38.7161 187.591 39.6589L188.402 38.3971ZM185.468 35.0648C184.757 33.5989 184.391 31.8901 184.391 29.92H182.891C182.891 32.0779 183.293 34.0171 184.118 35.7192L185.468 35.0648ZM199.439 29.956C199.439 28.274 198.962 26.8568 197.93 25.797L196.855 26.843C197.552 27.5592 197.939 28.566 197.939 29.956H199.439ZM197.938 25.8046C196.956 24.7666 195.727 24.238 194.297 24.238V25.738C195.315 25.738 196.15 26.0974 196.848 26.8354L197.938 25.8046ZM194.297 24.238C192.868 24.238 191.631 24.7659 190.627 25.797L191.702 26.843C192.427 26.0981 193.278 25.738 194.297 25.738V24.238ZM190.627 25.7972C189.616 26.8368 189.155 28.2448 189.155 29.92H190.655C190.655 28.5232 191.033 27.5312 191.703 26.8428L190.627 25.7972ZM189.155 29.92C189.155 31.5972 189.617 33.0185 190.613 34.1001L191.716 33.0839C191.033 32.3415 190.655 31.3148 190.655 29.92H189.155ZM190.627 34.115C191.631 35.1461 192.868 35.674 194.297 35.674V34.174C193.278 34.174 192.427 33.8139 191.702 33.069L190.627 34.115ZM194.297 35.674C195.727 35.674 196.956 35.1454 197.938 34.1074L196.848 33.0766C196.15 33.8146 195.315 34.174 194.297 34.174V35.674ZM197.93 34.115C198.962 33.0552 199.439 31.638 199.439 29.956H197.939C197.939 31.346 197.552 32.3528 196.855 33.069L197.93 34.115ZM227.154 22L226.599 22.5037L226.607 22.5127L227.154 22ZM229.278 40V40.75H230.028V40H229.278ZM223.158 40H222.408V40.75H223.158V40ZM222.114 25.96L221.567 26.4724L221.567 26.4724L222.114 25.96ZM216.498 25.96L217.046 26.4724L217.046 26.4724L216.498 25.96ZM215.454 40V40.75H216.204V40H215.454ZM209.298 40H208.548V40.75H209.298V40ZM209.298 19.912V19.162H208.548V19.912H209.298ZM215.454 19.912H216.204V19.162H215.454V19.912ZM215.454 22.576H214.704V24.9478L216.068 23.0072L215.454 22.576ZM217.974 20.488L218.298 21.165L218.31 21.1588L217.974 20.488ZM221.538 20.446C223.71 20.446 225.369 21.1465 226.599 22.5036L227.71 21.4964C226.156 19.7815 224.071 18.946 221.538 18.946V20.446ZM226.607 22.5127C227.859 23.8494 228.528 25.734 228.528 28.264H230.028C230.028 25.466 229.282 23.1746 227.702 21.4873L226.607 22.5127ZM228.528 28.264V40H230.028V28.264H228.528ZM229.278 39.25H223.158V40.75H229.278V39.25ZM223.908 40V29.092H222.408V40H223.908ZM223.908 29.092C223.908 27.6201 223.525 26.3703 222.662 25.4476L221.567 26.4724C222.096 27.0377 222.408 27.8759 222.408 29.092H223.908ZM222.662 25.4476C221.802 24.5282 220.655 24.094 219.306 24.094V25.594C220.31 25.594 221.035 25.9038 221.567 26.4724L222.662 25.4476ZM219.306 24.094C217.958 24.094 216.811 24.5282 215.951 25.4476L217.046 26.4724C217.578 25.9038 218.303 25.594 219.306 25.594V24.094ZM215.951 25.4476C215.088 26.3703 214.704 27.6201 214.704 29.092H216.204C216.204 27.8759 216.517 27.0377 217.046 26.4724L215.951 25.4476ZM214.704 29.092V40H216.204V29.092H214.704ZM215.454 39.25H209.298V40.75H215.454V39.25ZM210.048 40V19.912H208.548V40H210.048ZM209.298 20.662H215.454V19.162H209.298V20.662ZM214.704 19.912V22.576H216.204V19.912H214.704ZM216.068 23.0072C216.612 22.2329 217.348 21.6178 218.297 21.1649L217.651 19.8111C216.488 20.3662 215.545 21.1431 214.841 22.1448L216.068 23.0072ZM218.31 21.1588C219.25 20.6888 220.321 20.446 221.538 20.446V18.946C220.116 18.946 218.811 19.2312 217.639 19.8172L218.31 21.1588ZM233.988 16.888L233.468 17.4279L233.477 17.4373L233.488 17.4464L233.988 16.888ZM233.988 12.136L234.499 12.6856L234.499 12.6849L233.988 12.136ZM239.244 12.136L238.724 12.6759L238.733 12.6853L238.744 12.6944L239.244 12.136ZM239.244 16.888L239.755 17.4376L239.755 17.4369L239.244 16.888ZM239.712 19.912H240.462V19.162H239.712V19.912ZM239.712 40V40.75H240.462V40H239.712ZM233.556 40H232.806V40.75H233.556V40ZM233.556 19.912V19.162H232.806V19.912H233.556ZM236.652 17.074C235.726 17.074 235.026 16.8112 234.489 16.3296L233.488 17.4464C234.342 18.2128 235.418 18.574 236.652 18.574V17.074ZM234.509 16.3481C233.984 15.8419 233.73 15.245 233.73 14.512H232.23C232.23 15.651 232.649 16.6381 233.468 17.4279L234.509 16.3481ZM233.73 14.512C233.73 13.7495 233.987 13.1604 234.499 12.6856L233.478 11.5864C232.645 12.3596 232.23 13.3545 232.23 14.512H233.73ZM234.499 12.6849C235.037 12.1839 235.734 11.914 236.652 11.914V10.414C235.41 10.414 234.331 10.7921 233.477 11.5871L234.499 12.6849ZM236.652 11.914C237.542 11.914 238.21 12.1807 238.724 12.6759L239.765 11.5961C238.934 10.7953 237.875 10.414 236.652 10.414V11.914ZM238.744 12.6944C239.276 13.1718 239.538 13.7586 239.538 14.512H241.038C241.038 13.3454 240.604 12.3482 239.745 11.5776L238.744 12.6944ZM239.538 14.512C239.538 15.236 239.28 15.8304 238.733 16.3391L239.755 17.4369C240.601 16.6496 241.038 15.66 241.038 14.512H239.538ZM238.734 16.3384C238.222 16.8141 237.55 17.074 236.652 17.074V18.574C237.867 18.574 238.923 18.2099 239.755 17.4376L238.734 16.3384ZM238.962 19.912V40H240.462V19.912H238.962ZM239.712 39.25H233.556V40.75H239.712V39.25ZM234.306 40V19.912H232.806V40H234.306ZM233.556 20.662H239.712V19.162H233.556V20.662ZM244.101 24.484L243.433 24.1445L243.429 24.1527L244.101 24.484ZM247.305 20.884L247.703 21.52L247.703 21.52L247.305 20.884ZM255.513 20.488L255.154 21.1464L255.16 21.1498L255.513 20.488ZM257.997 22.756L257.359 23.1491L258.747 25.4058V22.756H257.997ZM257.997 19.912V19.162H257.247V19.912H257.997ZM264.153 19.912H264.903V19.162H264.153V19.912ZM264.153 40V40.75H264.903V40H264.153ZM257.997 40H257.247V40.75H257.997V40ZM257.997 37.156H258.747V34.5962L257.366 36.7513L257.997 37.156ZM255.477 39.424L255.124 38.7622L255.118 38.7656L255.477 39.424ZM247.305 39.028L246.9 39.6589L246.908 39.664L247.305 39.028ZM244.101 35.392L243.426 35.7193L243.433 35.7315L244.101 35.392ZM256.701 26.32L256.157 26.8354L256.164 26.843L256.701 26.32ZM250.473 26.32L249.936 25.797L249.936 25.7972L250.473 26.32ZM250.473 33.592L249.922 34.1001L249.929 34.1077L249.936 34.115L250.473 33.592ZM256.701 33.592L256.164 33.0689L256.157 33.0766L256.701 33.592ZM243.699 29.92C243.699 27.9496 244.066 26.2547 244.774 24.8153L243.429 24.1527C242.601 25.8333 242.199 27.7624 242.199 29.92H243.699ZM244.77 24.8235C245.507 23.3722 246.486 22.2803 247.703 21.52L246.908 20.248C245.436 21.1677 244.28 22.4758 243.433 24.1445L244.77 24.8235ZM247.703 21.52C248.922 20.7579 250.283 20.374 251.805 20.374V18.874C250.015 18.874 248.377 19.3301 246.908 20.248L247.703 21.52ZM251.805 20.374C253.118 20.374 254.226 20.6403 255.154 21.1464L255.873 19.8296C254.688 19.1837 253.325 18.874 251.805 18.874V20.374ZM255.16 21.1498C256.137 21.6704 256.86 22.3389 257.359 23.1491L258.636 22.3629C257.983 21.3011 257.05 20.4576 255.866 19.8262L255.16 21.1498ZM258.747 22.756V19.912H257.247V22.756H258.747ZM257.997 20.662H264.153V19.162H257.997V20.662ZM263.403 19.912V40H264.903V19.912H263.403ZM264.153 39.25H257.997V40.75H264.153V39.25ZM258.747 40V37.156H257.247V40H258.747ZM257.366 36.7513C256.842 37.5685 256.103 38.2404 255.124 38.7622L255.83 40.0858C257.012 39.4556 257.953 38.6155 258.629 37.5607L257.366 36.7513ZM255.118 38.7656C254.19 39.2717 253.082 39.538 251.769 39.538V41.038C253.289 41.038 254.652 40.7283 255.837 40.0824L255.118 38.7656ZM251.769 39.538C250.274 39.538 248.924 39.1552 247.703 38.392L246.908 39.664C248.375 40.5808 250.001 41.038 251.769 41.038V39.538ZM247.711 38.3971C246.489 37.6119 245.508 36.5053 244.77 35.0525L243.433 35.7315C244.279 37.3987 245.433 38.7161 246.9 39.6589L247.711 38.3971ZM244.776 35.0648C244.066 33.5989 243.699 31.8901 243.699 29.92H242.199C242.199 32.0779 242.601 34.0171 243.427 35.7192L244.776 35.0648ZM258.747 29.956C258.747 28.274 258.27 26.8568 257.239 25.797L256.164 26.843C256.861 27.5592 257.247 28.566 257.247 29.956H258.747ZM257.246 25.8046C256.264 24.7666 255.035 24.238 253.605 24.238V25.738C254.624 25.738 255.458 26.0974 256.157 26.8354L257.246 25.8046ZM253.605 24.238C252.176 24.238 250.939 24.7659 249.936 25.797L251.011 26.843C251.736 26.0981 252.587 25.738 253.605 25.738V24.238ZM249.936 25.7972C248.925 26.8368 248.463 28.2448 248.463 29.92H249.963C249.963 28.5232 250.342 27.5312 251.011 26.8428L249.936 25.7972ZM248.463 29.92C248.463 31.5972 248.926 33.0185 249.922 34.1001L251.025 33.0839C250.341 32.3415 249.963 31.3148 249.963 29.92H248.463ZM249.936 34.115C250.939 35.1461 252.176 35.674 253.605 35.674V34.174C252.587 34.174 251.736 33.8139 251.011 33.069L249.936 34.115ZM253.605 35.674C255.035 35.674 256.264 35.1454 257.246 34.1074L256.157 33.0766C255.458 33.8146 254.624 34.174 253.605 34.174V35.674ZM257.239 34.115C258.27 33.0552 258.747 31.638 258.747 29.956H257.247C257.247 31.346 256.861 32.3528 256.164 33.069L257.239 34.115Z" fill="#58D68D"/>
</svg>
