<svg width="279" height="61" viewBox="0 0 279 61" fill="none" xmlns="http://www.w3.org/2000/svg">
<path d="M8.67817 11.2411C8.13245 8.84167 5.85032 7.4781 3.5809 8.19544C1.31147 8.91278 -0.0858645 11.4394 0.459857 13.8388L10.341 57.2836C10.8867 59.683 13.1689 61.0466 15.4383 60.3293C17.7077 59.6119 19.1051 57.0853 18.5593 54.6859L8.67817 11.2411Z" fill="#58D68D"/>
<path d="M29.4685 0.240084L12.9757 5.51036C10.8325 6.19523 9.513 8.60692 10.0286 10.897C10.5441 13.1871 12.6995 14.4884 14.8427 13.8036L31.3355 8.53328C33.4787 7.84841 34.7982 5.43672 34.2826 3.14662C33.7671 0.856514 31.6117 -0.444786 29.4685 0.240084Z" fill="#58D68D"/>
<path d="M29.5454 22.4484L17.8821 26.1912C15.7349 26.8803 14.4131 29.3065 14.9296 31.6104C15.4462 33.9144 17.6055 35.2235 19.7527 34.5344L31.416 30.7916C33.5632 30.1025 34.885 27.6763 34.3684 25.3724C33.8519 23.0685 31.6925 21.7593 29.5454 22.4484Z" fill="#58D68D"/>
<path d="M39.267 41.7169L22.7742 46.9872C20.631 47.6721 19.3115 50.0838 19.8271 52.3739C20.3427 54.664 22.498 55.9653 24.6413 55.2804L41.134 50.0101C43.2772 49.3252 44.5967 46.9136 44.0812 44.6235C43.5656 42.3334 41.4102 41.0321 39.267 41.7169Z" fill="#58D68D"/>
<path d="M63.268 51.24L67.624 36.912H74.176L67.048 57H59.452L52.324 36.912H58.912L63.268 51.24ZM95.7032 46.632C95.7032 47.208 95.6672 47.808 95.5952 48.432H81.6632C81.7592 49.68 82.1552 50.64 82.8512 51.312C83.5712 51.96 84.4472 52.284 85.4792 52.284C87.0152 52.284 88.0832 51.636 88.6832 50.34H95.2352C94.8992 51.66 94.2872 52.848 93.3992 53.904C92.5352 54.96 91.4432 55.788 90.1232 56.388C88.8032 56.988 87.3272 57.288 85.6952 57.288C83.7272 57.288 81.9752 56.868 80.4392 56.028C78.9032 55.188 77.7032 53.988 76.8392 52.428C75.9752 50.868 75.5432 49.044 75.5432 46.956C75.5432 44.868 75.9632 43.044 76.8032 41.484C77.6672 39.924 78.8672 38.724 80.4032 37.884C81.9392 37.044 83.7032 36.624 85.6952 36.624C87.6392 36.624 89.3672 37.032 90.8792 37.848C92.3912 38.664 93.5672 39.828 94.4072 41.34C95.2712 42.852 95.7032 44.616 95.7032 46.632ZM89.4032 45.012C89.4032 43.956 89.0432 43.116 88.3232 42.492C87.6032 41.868 86.7032 41.556 85.6232 41.556C84.5912 41.556 83.7152 41.856 82.9952 42.456C82.2992 43.056 81.8672 43.908 81.6992 45.012H89.4032ZM111.191 36.696C113.543 36.696 115.415 37.464 116.807 39C118.223 40.512 118.931 42.6 118.931 45.264V57H112.811V46.092C112.811 44.748 112.463 43.704 111.767 42.96C111.071 42.216 110.135 41.844 108.959 41.844C107.783 41.844 106.847 42.216 106.151 42.96C105.455 43.704 105.107 44.748 105.107 46.092V57H98.9508V36.912H105.107V39.576C105.731 38.688 106.571 37.992 107.627 37.488C108.683 36.96 109.871 36.696 111.191 36.696ZM134.405 51.78V57H131.273C129.041 57 127.301 56.46 126.053 55.38C124.805 54.276 124.181 52.488 124.181 50.016V42.024H121.733V36.912H124.181V32.016H130.337V36.912H134.369V42.024H130.337V50.088C130.337 50.688 130.481 51.12 130.769 51.384C131.057 51.648 131.537 51.78 132.209 51.78H134.405ZM146.978 57.288C145.01 57.288 143.234 56.868 141.65 56.028C140.09 55.188 138.854 53.988 137.942 52.428C137.054 50.868 136.61 49.044 136.61 46.956C136.61 44.892 137.066 43.08 137.978 41.52C138.89 39.936 140.138 38.724 141.722 37.884C143.306 37.044 145.082 36.624 147.05 36.624C149.018 36.624 150.794 37.044 152.378 37.884C153.962 38.724 155.21 39.936 156.122 41.52C157.034 43.08 157.49 44.892 157.49 46.956C157.49 49.02 157.022 50.844 156.086 52.428C155.174 53.988 153.914 55.188 152.306 56.028C150.722 56.868 148.946 57.288 146.978 57.288ZM146.978 51.96C148.154 51.96 149.15 51.528 149.966 50.664C150.806 49.8 151.226 48.564 151.226 46.956C151.226 45.348 150.818 44.112 150.002 43.248C149.21 42.384 148.226 41.952 147.05 41.952C145.85 41.952 144.854 42.384 144.062 43.248C143.27 44.088 142.874 45.324 142.874 46.956C142.874 48.564 143.258 49.8 144.026 50.664C144.818 51.528 145.802 51.96 146.978 51.96ZM186.387 36.696C188.883 36.696 190.863 37.452 192.327 38.964C193.815 40.476 194.559 42.576 194.559 45.264V57H188.439V46.092C188.439 44.796 188.091 43.8 187.395 43.104C186.723 42.384 185.787 42.024 184.587 42.024C183.387 42.024 182.439 42.384 181.743 43.104C181.071 43.8 180.735 44.796 180.735 46.092V57H174.615V46.092C174.615 44.796 174.267 43.8 173.571 43.104C172.899 42.384 171.963 42.024 170.763 42.024C169.563 42.024 168.615 42.384 167.919 43.104C167.247 43.8 166.911 44.796 166.911 46.092V57H160.755V36.912H166.911V39.432C167.535 38.592 168.351 37.932 169.359 37.452C170.367 36.948 171.507 36.696 172.779 36.696C174.291 36.696 175.635 37.02 176.811 37.668C178.011 38.316 178.947 39.24 179.619 40.44C180.315 39.336 181.263 38.436 182.463 37.74C183.663 37.044 184.971 36.696 186.387 36.696ZM197.641 46.92C197.641 44.856 198.025 43.044 198.793 41.484C199.585 39.924 200.653 38.724 201.997 37.884C203.341 37.044 204.841 36.624 206.497 36.624C207.913 36.624 209.149 36.912 210.205 37.488C211.285 38.064 212.113 38.82 212.689 39.756V36.912H218.845V57H212.689V54.156C212.089 55.092 211.249 55.848 210.169 56.424C209.113 57 207.877 57.288 206.461 57.288C204.829 57.288 203.341 56.868 201.997 56.028C200.653 55.164 199.585 53.952 198.793 52.392C198.025 50.808 197.641 48.984 197.641 46.92ZM212.689 46.956C212.689 45.42 212.257 44.208 211.393 43.32C210.553 42.432 209.521 41.988 208.297 41.988C207.073 41.988 206.029 42.432 205.165 43.32C204.325 44.184 203.905 45.384 203.905 46.92C203.905 48.456 204.325 49.68 205.165 50.592C206.029 51.48 207.073 51.924 208.297 51.924C209.521 51.924 210.553 51.48 211.393 50.592C212.257 49.704 212.689 48.492 212.689 46.956ZM235.538 36.696C237.89 36.696 239.762 37.464 241.154 39C242.57 40.512 243.278 42.6 243.278 45.264V57H237.158V46.092C237.158 44.748 236.81 43.704 236.114 42.96C235.418 42.216 234.482 41.844 233.306 41.844C232.13 41.844 231.194 42.216 230.498 42.96C229.802 43.704 229.454 44.748 229.454 46.092V57H223.298V36.912H229.454V39.576C230.078 38.688 230.918 37.992 231.974 37.488C233.03 36.96 234.218 36.696 235.538 36.696ZM250.652 34.824C249.572 34.824 248.684 34.512 247.988 33.888C247.316 33.24 246.98 32.448 246.98 31.512C246.98 30.552 247.316 29.76 247.988 29.136C248.684 28.488 249.572 28.164 250.652 28.164C251.708 28.164 252.572 28.488 253.244 29.136C253.94 29.76 254.288 30.552 254.288 31.512C254.288 32.448 253.94 33.24 253.244 33.888C252.572 34.512 251.708 34.824 250.652 34.824ZM253.712 36.912V57H247.556V36.912H253.712ZM256.949 46.92C256.949 44.856 257.333 43.044 258.101 41.484C258.893 39.924 259.961 38.724 261.305 37.884C262.649 37.044 264.149 36.624 265.805 36.624C267.221 36.624 268.457 36.912 269.513 37.488C270.593 38.064 271.421 38.82 271.997 39.756V36.912H278.153V57H271.997V54.156C271.397 55.092 270.557 55.848 269.477 56.424C268.421 57 267.185 57.288 265.769 57.288C264.137 57.288 262.649 56.868 261.305 56.028C259.961 55.164 258.893 53.952 258.101 52.392C257.333 50.808 256.949 48.984 256.949 46.92ZM271.997 46.956C271.997 45.42 271.565 44.208 270.701 43.32C269.861 42.432 268.829 41.988 267.605 41.988C266.381 41.988 265.337 42.432 264.473 43.32C263.633 44.184 263.213 45.384 263.213 46.92C263.213 48.456 263.633 49.68 264.473 50.592C265.337 51.48 266.381 51.924 267.605 51.924C268.829 51.924 269.861 51.48 270.701 50.592C271.565 49.704 271.997 48.492 271.997 46.956Z" fill="#003BB1"/>
<path d="M63.268 51.24L62.5504 51.4582L63.268 53.8184L63.9856 51.4582L63.268 51.24ZM67.624 36.912V36.162H67.0681L66.9064 36.6938L67.624 36.912ZM74.176 36.912L74.8828 37.1628L75.2379 36.162H74.176V36.912ZM67.048 57V57.75H67.5777L67.7548 57.2508L67.048 57ZM59.452 57L58.7452 57.2508L58.9223 57.75H59.452V57ZM52.324 36.912V36.162H51.2621L51.6172 37.1628L52.324 36.912ZM58.912 36.912L59.6296 36.6938L59.4679 36.162H58.912V36.912ZM63.9856 51.4582L68.3416 37.1302L66.9064 36.6938L62.5504 51.0218L63.9856 51.4582ZM67.624 37.662H74.176V36.162H67.624V37.662ZM73.4692 36.6612L66.3412 56.7492L67.7548 57.2508L74.8828 37.1628L73.4692 36.6612ZM67.048 56.25H59.452V57.75H67.048V56.25ZM60.1588 56.7492L53.0308 36.6612L51.6172 37.1628L58.7452 57.2508L60.1588 56.7492ZM52.324 37.662H58.912V36.162H52.324V37.662ZM58.1944 37.1302L62.5504 51.4582L63.9856 51.0218L59.6296 36.6938L58.1944 37.1302ZM95.5952 48.432V49.182H96.2636L96.3402 48.518L95.5952 48.432ZM81.6632 48.432V47.682H80.8532L80.9154 48.4895L81.6632 48.432ZM82.8512 51.312L82.3302 51.8516L82.3397 51.8607L82.3494 51.8695L82.8512 51.312ZM88.6832 50.34V49.59H88.2039L88.0026 50.0249L88.6832 50.34ZM95.2352 50.34L95.962 50.525L96.2 49.59H95.2352V50.34ZM93.3992 53.904L92.8251 53.4213L92.8187 53.4291L93.3992 53.904ZM90.1232 56.388L90.4335 57.0708L90.1232 56.388ZM80.4392 56.028L80.0793 56.686L80.0793 56.686L80.4392 56.028ZM76.8392 52.428L77.4952 52.0646L77.4952 52.0646L76.8392 52.428ZM76.8032 41.484L76.147 41.1206L76.1428 41.1284L76.8032 41.484ZM80.4032 37.884L80.763 38.542L80.763 38.542L80.4032 37.884ZM90.8792 37.848L90.523 38.508L90.523 38.508L90.8792 37.848ZM94.4072 41.34L93.7515 41.7043L93.756 41.7121L94.4072 41.34ZM89.4032 45.012V45.762H90.1532V45.012H89.4032ZM88.3232 42.492L88.8144 41.9252L88.8144 41.9252L88.3232 42.492ZM82.9952 42.456L82.515 41.8798L82.5055 41.8879L82.9952 42.456ZM81.6992 45.012L80.9577 44.8992L80.8264 45.762H81.6992V45.012ZM94.9532 46.632C94.9532 47.1768 94.9191 47.748 94.8501 48.346L96.3402 48.518C96.4152 47.868 96.4532 47.2392 96.4532 46.632H94.9532ZM95.5952 47.682H81.6632V49.182H95.5952V47.682ZM80.9154 48.4895C81.0212 49.8654 81.4671 51.0182 82.3302 51.8516L83.3721 50.7724C82.8432 50.2618 82.4971 49.4946 82.4109 48.3745L80.9154 48.4895ZM82.3494 51.8695C83.2167 52.65 84.2751 53.034 85.4792 53.034V51.534C84.6192 51.534 83.9256 51.27 83.3529 50.7545L82.3494 51.8695ZM85.4792 53.034C86.3529 53.034 87.1457 52.8491 87.8212 52.4392C88.5002 52.0272 89.0104 51.4184 89.3638 50.6551L88.0026 50.0249C87.7559 50.5576 87.4321 50.9208 87.0431 51.1568C86.6506 51.3949 86.1414 51.534 85.4792 51.534V53.034ZM88.6832 51.09H95.2352V49.59H88.6832V51.09ZM94.5083 50.155C94.2006 51.3641 93.6414 52.4506 92.8251 53.4213L93.9732 54.3867C94.9329 53.2454 95.5977 51.9559 95.962 50.525L94.5083 50.155ZM92.8187 53.4291C92.0321 54.3904 91.0347 55.1498 89.8128 55.7052L90.4335 57.0708C91.8516 56.4262 93.0382 55.5296 93.9796 54.3789L92.8187 53.4291ZM89.8128 55.7052C88.6018 56.2557 87.2336 56.538 85.6952 56.538V58.038C87.4207 58.038 89.0045 57.7203 90.4335 57.0708L89.8128 55.7052ZM85.6952 56.538C83.8371 56.538 82.2115 56.1424 80.799 55.37L80.0793 56.686C81.7388 57.5936 83.6173 58.038 85.6952 58.038V56.538ZM80.799 55.37C79.3901 54.5995 78.2918 53.5028 77.4952 52.0646L76.1831 52.7914C77.1145 54.4732 78.4162 55.7765 80.0793 56.686L80.799 55.37ZM77.4952 52.0646C76.7026 50.6335 76.2932 48.9387 76.2932 46.956H74.7932C74.7932 49.1493 75.2477 51.1025 76.1831 52.7914L77.4952 52.0646ZM76.2932 46.956C76.2932 44.9699 76.692 43.2723 77.4635 41.8396L76.1428 41.1284C75.2343 42.8157 74.7932 44.7661 74.7932 46.956H76.2932ZM77.4592 41.8474C78.2558 40.4092 79.3541 39.3125 80.763 38.542L80.0433 37.226C78.3802 38.1355 77.0785 39.4388 76.1471 41.1206L77.4592 41.8474ZM80.763 38.542C82.1742 37.7703 83.8114 37.374 85.6952 37.374V35.874C83.5949 35.874 81.7041 36.3177 80.0433 37.226L80.763 38.542ZM85.6952 37.374C87.5314 37.374 89.1341 37.7585 90.523 38.508L91.2354 37.188C89.6002 36.3055 87.747 35.874 85.6952 35.874V37.374ZM90.523 38.508C91.9081 39.2555 92.9806 40.3165 93.7515 41.7042L95.0628 40.9758C94.1537 39.3395 92.8742 38.0725 91.2354 37.188L90.523 38.508ZM93.756 41.7121C94.5456 43.094 94.9532 44.7257 94.9532 46.632H96.4532C96.4532 44.5063 95.9967 42.61 95.0583 40.9679L93.756 41.7121ZM90.1532 45.012C90.1532 43.7649 89.7177 42.7081 88.8144 41.9252L87.832 43.0588C88.3686 43.5239 88.6532 44.1471 88.6532 45.012H90.1532ZM88.8144 41.9252C87.9398 41.1672 86.8579 40.806 85.6232 40.806V42.306C86.5484 42.306 87.2666 42.5687 87.832 43.0588L88.8144 41.9252ZM85.6232 40.806C84.4347 40.806 83.3837 41.1559 82.515 41.8798L83.4753 43.0322C84.0466 42.5561 84.7476 42.306 85.6232 42.306V40.806ZM82.5055 41.8879C81.6463 42.6286 81.1466 43.6579 80.9577 44.8992L82.4406 45.1248C82.5877 44.1581 82.952 43.4834 83.4849 43.0241L82.5055 41.8879ZM81.6992 45.762H89.4032V44.262H81.6992V45.762ZM116.807 39L116.251 39.5037L116.259 39.5127L116.807 39ZM118.931 57V57.75H119.681V57H118.931ZM112.811 57H112.061V57.75H112.811V57ZM111.767 42.96L111.219 43.4724L111.219 43.4724L111.767 42.96ZM106.151 42.96L106.698 43.4724L106.698 43.4724L106.151 42.96ZM105.107 57V57.75H105.857V57H105.107ZM98.9508 57H98.2008V57.75H98.9508V57ZM98.9508 36.912V36.162H98.2008V36.912H98.9508ZM105.107 36.912H105.857V36.162H105.107V36.912ZM105.107 39.576H104.357V41.9478L105.72 40.0072L105.107 39.576ZM107.627 37.488L107.95 38.165L107.962 38.1588L107.627 37.488ZM111.191 37.446C113.363 37.446 115.021 38.1465 116.251 39.5036L117.362 38.4964C115.808 36.7815 113.723 35.946 111.191 35.946V37.446ZM116.259 39.5127C117.511 40.8494 118.181 42.734 118.181 45.264H119.681C119.681 42.466 118.934 40.1746 117.354 38.4873L116.259 39.5127ZM118.181 45.264V57H119.681V45.264H118.181ZM118.931 56.25H112.811V57.75H118.931V56.25ZM113.561 57V46.092H112.061V57H113.561ZM113.561 46.092C113.561 44.6201 113.178 43.3703 112.314 42.4476L111.219 43.4724C111.748 44.0377 112.061 44.8759 112.061 46.092H113.561ZM112.314 42.4476C111.454 41.5282 110.307 41.094 108.959 41.094V42.594C109.962 42.594 110.687 42.9038 111.219 43.4724L112.314 42.4476ZM108.959 41.094C107.61 41.094 106.463 41.5282 105.603 42.4476L106.698 43.4724C107.23 42.9038 107.955 42.594 108.959 42.594V41.094ZM105.603 42.4476C104.74 43.3703 104.357 44.6201 104.357 46.092H105.857C105.857 44.8759 106.17 44.0377 106.698 43.4724L105.603 42.4476ZM104.357 46.092V57H105.857V46.092H104.357ZM105.107 56.25H98.9508V57.75H105.107V56.25ZM99.7008 57V36.912H98.2008V57H99.7008ZM98.9508 37.662H105.107V36.162H98.9508V37.662ZM104.357 36.912V39.576H105.857V36.912H104.357ZM105.72 40.0072C106.265 39.2329 107.001 38.6178 107.95 38.1649L107.304 36.8111C106.141 37.3662 105.197 38.1431 104.493 39.1448L105.72 40.0072ZM107.962 38.1588C108.902 37.6888 109.973 37.446 111.191 37.446V35.946C109.768 35.946 108.463 36.2312 107.291 36.8172L107.962 38.1588ZM134.405 51.78H135.155V51.03H134.405V51.78ZM134.405 57V57.75H135.155V57H134.405ZM126.053 55.38L125.556 55.9418L125.562 55.9471L126.053 55.38ZM124.181 42.024H124.931V41.274H124.181V42.024ZM121.733 42.024H120.983V42.774H121.733V42.024ZM121.733 36.912V36.162H120.983V36.912H121.733ZM124.181 36.912V37.662H124.931V36.912H124.181ZM124.181 32.016V31.266H123.431V32.016H124.181ZM130.337 32.016H131.087V31.266H130.337V32.016ZM130.337 36.912H129.587V37.662H130.337V36.912ZM134.369 36.912H135.119V36.162H134.369V36.912ZM134.369 42.024V42.774H135.119V42.024H134.369ZM130.337 42.024V41.274H129.587V42.024H130.337ZM130.769 51.384L130.262 51.9369L130.262 51.9369L130.769 51.384ZM133.655 51.78V57H135.155V51.78H133.655ZM134.405 56.25H131.273V57.75H134.405V56.25ZM131.273 56.25C129.157 56.25 127.613 55.7389 126.543 54.8129L125.562 55.9471C126.988 57.1811 128.924 57.75 131.273 57.75V56.25ZM126.549 54.8183C125.527 53.9139 124.931 52.3783 124.931 50.016H123.431C123.431 52.5977 124.082 54.6381 125.556 55.9417L126.549 54.8183ZM124.931 50.016V42.024H123.431V50.016H124.931ZM124.181 41.274H121.733V42.774H124.181V41.274ZM122.483 42.024V36.912H120.983V42.024H122.483ZM121.733 37.662H124.181V36.162H121.733V37.662ZM124.931 36.912V32.016H123.431V36.912H124.931ZM124.181 32.766H130.337V31.266H124.181V32.766ZM129.587 32.016V36.912H131.087V32.016H129.587ZM130.337 37.662H134.369V36.162H130.337V37.662ZM133.619 36.912V42.024H135.119V36.912H133.619ZM134.369 41.274H130.337V42.774H134.369V41.274ZM129.587 42.024V50.088H131.087V42.024H129.587ZM129.587 50.088C129.587 50.7865 129.752 51.4697 130.262 51.9369L131.275 50.8311C131.209 50.7703 131.087 50.5895 131.087 50.088H129.587ZM130.262 51.9369C130.758 52.3921 131.473 52.53 132.209 52.53V51.03C131.6 51.03 131.355 50.9039 131.275 50.8311L130.262 51.9369ZM132.209 52.53H134.405V51.03H132.209V52.53ZM141.65 56.028L141.294 56.6884L141.298 56.6906L141.65 56.028ZM137.942 52.428L137.29 52.799L137.294 52.8065L137.942 52.428ZM137.978 41.52L138.625 41.8985L138.628 41.8942L137.978 41.52ZM141.722 37.884L142.073 38.5466L142.073 38.5466L141.722 37.884ZM152.378 37.884L152.026 38.5466L152.026 38.5466L152.378 37.884ZM156.122 41.52L155.472 41.8942L155.474 41.8985L156.122 41.52ZM156.086 52.428L155.44 52.0464L155.438 52.0495L156.086 52.428ZM152.306 56.028L151.958 55.3632L151.954 55.3654L152.306 56.028ZM149.966 50.664L149.428 50.1411L149.42 50.149L149.966 50.664ZM150.002 43.248L149.449 43.7548L149.456 43.763L150.002 43.248ZM144.062 43.248L144.607 43.7626L144.614 43.7548L144.062 43.248ZM144.026 50.664L143.465 51.1623L143.473 51.1708L144.026 50.664ZM146.978 56.538C145.12 56.538 143.466 56.1425 142.001 55.3654L141.298 56.6906C143.001 57.5935 144.899 58.038 146.978 58.038V56.538ZM142.005 55.3676C140.569 54.5943 139.433 53.493 138.589 52.0495L137.294 52.8065C138.274 54.483 139.61 55.7817 141.294 56.6884L142.005 55.3676ZM138.593 52.057C137.78 50.6273 137.36 48.9353 137.36 46.956H135.86C135.86 49.1527 136.328 51.1087 137.29 52.799L138.593 52.057ZM137.36 46.956C137.36 45.0058 137.789 43.3281 138.625 41.8985L137.33 41.1415C136.342 42.8319 135.86 44.7782 135.86 46.956H137.36ZM138.628 41.8942C139.471 40.43 140.616 39.3191 142.073 38.5466L141.37 37.2214C139.659 38.1289 138.309 39.442 137.328 41.1458L138.628 41.8942ZM142.073 38.5466C143.538 37.7694 145.192 37.374 147.05 37.374V35.874C144.971 35.874 143.073 36.3185 141.37 37.2214L142.073 38.5466ZM147.05 37.374C148.907 37.374 150.561 37.7694 152.026 38.5466L152.729 37.2214C151.026 36.3185 149.128 35.874 147.05 35.874V37.374ZM152.026 38.5466C153.483 39.3191 154.629 40.43 155.472 41.8942L156.772 41.1458C155.791 39.442 154.44 38.1289 152.729 37.2214L152.026 38.5466ZM155.474 41.8985C156.31 43.3281 156.74 45.0058 156.74 46.956H158.24C158.24 44.7782 157.757 42.8319 156.769 41.1415L155.474 41.8985ZM156.74 46.956C156.74 48.9025 156.3 50.5916 155.44 52.0465L156.731 52.8095C157.744 51.0964 158.24 49.1375 158.24 46.956H156.74ZM155.438 52.0495C154.598 53.4872 153.442 54.5883 151.958 55.3632L152.653 56.6928C154.385 55.7877 155.75 54.4888 156.733 52.8065L155.438 52.0495ZM151.954 55.3654C150.489 56.1425 148.835 56.538 146.978 56.538V58.038C149.056 58.038 150.954 57.5935 152.657 56.6906L151.954 55.3654ZM146.978 52.71C148.362 52.71 149.555 52.1912 150.511 51.179L149.42 50.149C148.744 50.8648 147.945 51.21 146.978 51.21V52.71ZM150.503 51.1868C151.52 50.1411 151.976 48.6921 151.976 46.956H150.476C150.476 48.4359 150.091 49.4589 149.428 50.1412L150.503 51.1868ZM151.976 46.956C151.976 45.2254 151.535 43.7793 150.547 42.733L149.456 43.763C150.1 44.4446 150.476 45.4706 150.476 46.956H151.976ZM150.554 42.7412C149.62 41.7216 148.435 41.202 147.05 41.202V42.702C148.016 42.702 148.799 43.0464 149.449 43.7548L150.554 42.7412ZM147.05 41.202C145.645 41.202 144.447 41.7181 143.509 42.7412L144.614 43.7548C145.261 43.0499 146.054 42.702 147.05 42.702V41.202ZM143.516 42.7335C142.547 43.7613 142.124 45.212 142.124 46.956H143.624C143.624 45.436 143.992 44.4147 144.607 43.7625L143.516 42.7335ZM142.124 46.956C142.124 48.6759 142.534 50.1154 143.465 51.1623L144.586 50.1657C143.981 49.4846 143.624 48.4521 143.624 46.956H142.124ZM143.473 51.1708C144.407 52.1904 145.592 52.71 146.978 52.71V51.21C146.011 51.21 145.228 50.8656 144.578 50.1572L143.473 51.1708ZM192.327 38.964L191.789 39.4857L191.793 39.4901L192.327 38.964ZM194.559 57V57.75H195.309V57H194.559ZM188.439 57H187.689V57.75H188.439V57ZM187.395 43.104L186.847 43.6157L186.856 43.6252L186.865 43.6343L187.395 43.104ZM181.743 43.104L181.204 42.5827L181.204 42.5831L181.743 43.104ZM180.735 57V57.75H181.485V57H180.735ZM174.615 57H173.865V57.75H174.615V57ZM173.571 43.104L173.023 43.6157L173.032 43.6252L173.041 43.6343L173.571 43.104ZM167.919 43.104L167.38 42.5827L167.38 42.5831L167.919 43.104ZM166.911 57V57.75H167.661V57H166.911ZM160.755 57H160.005V57.75H160.755V57ZM160.755 36.912V36.162H160.005V36.912H160.755ZM166.911 36.912H167.661V36.162H166.911V36.912ZM166.911 39.432H166.161V41.6993L167.513 39.8792L166.911 39.432ZM169.359 37.452L169.682 38.1291L169.688 38.126L169.695 38.1228L169.359 37.452ZM176.811 37.668L176.449 38.3249L176.455 38.3279L176.811 37.668ZM179.619 40.44L178.965 40.8065L179.581 41.9069L180.254 40.84L179.619 40.44ZM186.387 37.446C188.721 37.446 190.492 38.1465 191.789 39.4857L192.866 38.4423C191.235 36.7575 189.046 35.946 186.387 35.946V37.446ZM191.793 39.4901C193.108 40.8268 193.809 42.7177 193.809 45.264H195.309C195.309 42.4343 194.522 40.1252 192.862 38.4379L191.793 39.4901ZM193.809 45.264V57H195.309V45.264H193.809ZM194.559 56.25H188.439V57.75H194.559V56.25ZM189.189 57V46.092H187.689V57H189.189ZM189.189 46.092C189.189 44.6625 188.803 43.4506 187.926 42.5737L186.865 43.6343C187.38 44.1494 187.689 44.9295 187.689 46.092H189.189ZM187.944 42.5923C187.1 41.6879 185.946 41.274 184.587 41.274V42.774C185.628 42.774 186.347 43.0801 186.847 43.6157L187.944 42.5923ZM184.587 41.274C183.228 41.274 182.069 41.688 181.204 42.5827L182.283 43.6253C182.81 43.08 183.547 42.774 184.587 42.774V41.274ZM181.204 42.5831C180.356 43.461 179.985 44.6693 179.985 46.092H181.485C181.485 44.9226 181.787 44.139 182.283 43.6249L181.204 42.5831ZM179.985 46.092V57H181.485V46.092H179.985ZM180.735 56.25H174.615V57.75H180.735V56.25ZM175.365 57V46.092H173.865V57H175.365ZM175.365 46.092C175.365 44.6625 174.979 43.4506 174.102 42.5737L173.041 43.6343C173.556 44.1494 173.865 44.9295 173.865 46.092H175.365ZM174.12 42.5923C173.276 41.6879 172.122 41.274 170.763 41.274V42.774C171.804 42.774 172.523 43.0801 173.023 43.6157L174.12 42.5923ZM170.763 41.274C169.404 41.274 168.245 41.688 167.38 42.5827L168.459 43.6253C168.986 43.08 169.723 42.774 170.763 42.774V41.274ZM167.38 42.5831C166.532 43.461 166.161 44.6693 166.161 46.092H167.661C167.661 44.9226 167.963 44.139 168.459 43.6249L167.38 42.5831ZM166.161 46.092V57H167.661V46.092H166.161ZM166.911 56.25H160.755V57.75H166.911V56.25ZM161.505 57V36.912H160.005V57H161.505ZM160.755 37.662H166.911V36.162H160.755V37.662ZM166.161 36.912V39.432H167.661V36.912H166.161ZM167.513 39.8792C168.06 39.1441 168.777 38.5601 169.682 38.1291L169.037 36.7749C167.926 37.3039 167.011 38.0399 166.309 38.9848L167.513 39.8792ZM169.695 38.1228C170.586 37.6772 171.609 37.446 172.779 37.446V35.946C171.406 35.946 170.149 36.2187 169.024 36.7812L169.695 38.1228ZM172.779 37.446C174.181 37.446 175.398 37.7453 176.449 38.3249L177.173 37.0111C175.873 36.2947 174.402 35.946 172.779 35.946V37.446ZM176.455 38.3279C177.529 38.9077 178.362 39.7294 178.965 40.8065L180.274 40.0735C179.533 38.7506 178.494 37.7243 177.168 37.0081L176.455 38.3279ZM180.254 40.84C180.881 39.845 181.738 39.0279 182.84 38.3888L182.087 37.0912C180.789 37.8441 179.75 38.827 178.985 40.04L180.254 40.84ZM182.84 38.3888C183.923 37.7605 185.101 37.446 186.387 37.446V35.946C184.842 35.946 183.404 36.3275 182.087 37.0912L182.84 38.3888ZM198.793 41.484L198.124 41.1445L198.12 41.1527L198.793 41.484ZM201.997 37.884L202.394 38.52L202.394 38.52L201.997 37.884ZM210.205 37.488L209.846 38.1464L209.852 38.1498L210.205 37.488ZM212.689 39.756L212.05 40.1491L213.439 42.4058V39.756H212.689ZM212.689 36.912V36.162H211.939V36.912H212.689ZM218.845 36.912H219.595V36.162H218.845V36.912ZM218.845 57V57.75H219.595V57H218.845ZM212.689 57H211.939V57.75H212.689V57ZM212.689 54.156H213.439V51.5962L212.057 53.7513L212.689 54.156ZM210.169 56.424L209.816 55.7622L209.81 55.7656L210.169 56.424ZM201.997 56.028L201.591 56.6589L201.599 56.664L201.997 56.028ZM198.793 52.392L198.118 52.7193L198.124 52.7315L198.793 52.392ZM211.393 43.32L210.848 43.8354L210.855 43.843L211.393 43.32ZM205.165 43.32L204.627 42.797L204.627 42.7972L205.165 43.32ZM205.165 50.592L204.613 51.1001L204.62 51.1077L204.627 51.115L205.165 50.592ZM211.393 50.592L210.855 50.0689L210.848 50.0766L211.393 50.592ZM198.391 46.92C198.391 44.9496 198.757 43.2547 199.466 41.8153L198.12 41.1527C197.293 42.8333 196.891 44.7624 196.891 46.92H198.391ZM199.462 41.8235C200.198 40.3722 201.178 39.2803 202.394 38.52L201.599 37.248C200.128 38.1677 198.971 39.4758 198.124 41.1445L199.462 41.8235ZM202.394 38.52C203.614 37.7579 204.975 37.374 206.497 37.374V35.874C204.707 35.874 203.068 36.3301 201.599 37.248L202.394 38.52ZM206.497 37.374C207.81 37.374 208.918 37.6403 209.846 38.1464L210.564 36.8296C209.38 36.1837 208.016 35.874 206.497 35.874V37.374ZM209.852 38.1498C210.828 38.6704 211.552 39.3389 212.05 40.1491L213.328 39.3629C212.674 38.3011 211.741 37.4576 210.558 36.8262L209.852 38.1498ZM213.439 39.756V36.912H211.939V39.756H213.439ZM212.689 37.662H218.845V36.162H212.689V37.662ZM218.095 36.912V57H219.595V36.912H218.095ZM218.845 56.25H212.689V57.75H218.845V56.25ZM213.439 57V54.156H211.939V57H213.439ZM212.057 53.7513C211.534 54.5685 210.794 55.2404 209.816 55.7622L210.522 57.0858C211.703 56.4556 212.644 55.6155 213.32 54.5607L212.057 53.7513ZM209.81 55.7656C208.882 56.2717 207.774 56.538 206.461 56.538V58.038C207.98 58.038 209.344 57.7283 210.528 57.0824L209.81 55.7656ZM206.461 56.538C204.965 56.538 203.615 56.1552 202.394 55.392L201.599 56.664C203.066 57.5808 204.693 58.038 206.461 58.038V56.538ZM202.402 55.3971C201.181 54.6119 200.199 53.5053 199.462 52.0525L198.124 52.7315C198.97 54.3987 200.125 55.7161 201.591 56.6589L202.402 55.3971ZM199.468 52.0648C198.757 50.5989 198.391 48.8901 198.391 46.92H196.891C196.891 49.0779 197.293 51.0171 198.118 52.7192L199.468 52.0648ZM213.439 46.956C213.439 45.274 212.962 43.8568 211.93 42.797L210.855 43.843C211.552 44.5592 211.939 45.566 211.939 46.956H213.439ZM211.938 42.8046C210.956 41.7666 209.727 41.238 208.297 41.238V42.738C209.315 42.738 210.15 43.0974 210.848 43.8354L211.938 42.8046ZM208.297 41.238C206.868 41.238 205.631 41.7659 204.627 42.797L205.702 43.843C206.427 43.0981 207.278 42.738 208.297 42.738V41.238ZM204.627 42.7972C203.616 43.8368 203.155 45.2448 203.155 46.92H204.655C204.655 45.5232 205.033 44.5312 205.703 43.8428L204.627 42.7972ZM203.155 46.92C203.155 48.5972 203.617 50.0185 204.613 51.1001L205.716 50.0839C205.033 49.3415 204.655 48.3148 204.655 46.92H203.155ZM204.627 51.115C205.631 52.1461 206.868 52.674 208.297 52.674V51.174C207.278 51.174 206.427 50.8139 205.702 50.069L204.627 51.115ZM208.297 52.674C209.727 52.674 210.956 52.1454 211.938 51.1074L210.848 50.0766C210.15 50.8146 209.315 51.174 208.297 51.174V52.674ZM211.93 51.115C212.962 50.0552 213.439 48.638 213.439 46.956H211.939C211.939 48.346 211.552 49.3528 210.855 50.069L211.93 51.115ZM241.154 39L240.599 39.5037L240.607 39.5127L241.154 39ZM243.278 57V57.75H244.028V57H243.278ZM237.158 57H236.408V57.75H237.158V57ZM236.114 42.96L235.567 43.4724L235.567 43.4724L236.114 42.96ZM230.498 42.96L231.046 43.4724L231.046 43.4724L230.498 42.96ZM229.454 57V57.75H230.204V57H229.454ZM223.298 57H222.548V57.75H223.298V57ZM223.298 36.912V36.162H222.548V36.912H223.298ZM229.454 36.912H230.204V36.162H229.454V36.912ZM229.454 39.576H228.704V41.9478L230.068 40.0072L229.454 39.576ZM231.974 37.488L232.298 38.165L232.31 38.1588L231.974 37.488ZM235.538 37.446C237.71 37.446 239.369 38.1465 240.599 39.5036L241.71 38.4964C240.156 36.7815 238.071 35.946 235.538 35.946V37.446ZM240.607 39.5127C241.859 40.8494 242.528 42.734 242.528 45.264H244.028C244.028 42.466 243.282 40.1746 241.702 38.4873L240.607 39.5127ZM242.528 45.264V57H244.028V45.264H242.528ZM243.278 56.25H237.158V57.75H243.278V56.25ZM237.908 57V46.092H236.408V57H237.908ZM237.908 46.092C237.908 44.6201 237.525 43.3703 236.662 42.4476L235.567 43.4724C236.096 44.0377 236.408 44.8759 236.408 46.092H237.908ZM236.662 42.4476C235.802 41.5282 234.655 41.094 233.306 41.094V42.594C234.31 42.594 235.035 42.9038 235.567 43.4724L236.662 42.4476ZM233.306 41.094C231.958 41.094 230.811 41.5282 229.951 42.4476L231.046 43.4724C231.578 42.9038 232.303 42.594 233.306 42.594V41.094ZM229.951 42.4476C229.088 43.3703 228.704 44.6201 228.704 46.092H230.204C230.204 44.8759 230.517 44.0377 231.046 43.4724L229.951 42.4476ZM228.704 46.092V57H230.204V46.092H228.704ZM229.454 56.25H223.298V57.75H229.454V56.25ZM224.048 57V36.912H222.548V57H224.048ZM223.298 37.662H229.454V36.162H223.298V37.662ZM228.704 36.912V39.576H230.204V36.912H228.704ZM230.068 40.0072C230.612 39.2329 231.348 38.6178 232.297 38.1649L231.651 36.8111C230.488 37.3662 229.545 38.1431 228.841 39.1448L230.068 40.0072ZM232.31 38.1588C233.25 37.6888 234.321 37.446 235.538 37.446V35.946C234.116 35.946 232.811 36.2312 231.639 36.8172L232.31 38.1588ZM247.988 33.888L247.468 34.4279L247.477 34.4373L247.488 34.4464L247.988 33.888ZM247.988 29.136L248.499 29.6856L248.499 29.6849L247.988 29.136ZM253.244 29.136L252.724 29.6759L252.733 29.6853L252.744 29.6944L253.244 29.136ZM253.244 33.888L253.755 34.4376L253.755 34.4369L253.244 33.888ZM253.712 36.912H254.462V36.162H253.712V36.912ZM253.712 57V57.75H254.462V57H253.712ZM247.556 57H246.806V57.75H247.556V57ZM247.556 36.912V36.162H246.806V36.912H247.556ZM250.652 34.074C249.726 34.074 249.026 33.8112 248.489 33.3296L247.488 34.4464C248.342 35.2128 249.418 35.574 250.652 35.574V34.074ZM248.509 33.3481C247.984 32.8419 247.73 32.245 247.73 31.512H246.23C246.23 32.651 246.649 33.6381 247.468 34.4279L248.509 33.3481ZM247.73 31.512C247.73 30.7495 247.987 30.1604 248.499 29.6856L247.478 28.5864C246.645 29.3596 246.23 30.3545 246.23 31.512H247.73ZM248.499 29.6849C249.037 29.1839 249.734 28.914 250.652 28.914V27.414C249.41 27.414 248.331 27.7921 247.477 28.5871L248.499 29.6849ZM250.652 28.914C251.542 28.914 252.21 29.1807 252.724 29.6759L253.765 28.5961C252.934 27.7953 251.875 27.414 250.652 27.414V28.914ZM252.744 29.6944C253.276 30.1718 253.538 30.7586 253.538 31.512H255.038C255.038 30.3454 254.604 29.3482 253.745 28.5776L252.744 29.6944ZM253.538 31.512C253.538 32.236 253.28 32.8304 252.733 33.3391L253.755 34.4369C254.601 33.6496 255.038 32.66 255.038 31.512H253.538ZM252.734 33.3384C252.222 33.8141 251.55 34.074 250.652 34.074V35.574C251.867 35.574 252.923 35.2099 253.755 34.4376L252.734 33.3384ZM252.962 36.912V57H254.462V36.912H252.962ZM253.712 56.25H247.556V57.75H253.712V56.25ZM248.306 57V36.912H246.806V57H248.306ZM247.556 37.662H253.712V36.162H247.556V37.662ZM258.101 41.484L257.433 41.1445L257.429 41.1527L258.101 41.484ZM261.305 37.884L261.703 38.52L261.703 38.52L261.305 37.884ZM269.513 37.488L269.154 38.1464L269.16 38.1498L269.513 37.488ZM271.997 39.756L271.359 40.1491L272.747 42.4058V39.756H271.997ZM271.997 36.912V36.162H271.247V36.912H271.997ZM278.153 36.912H278.903V36.162H278.153V36.912ZM278.153 57V57.75H278.903V57H278.153ZM271.997 57H271.247V57.75H271.997V57ZM271.997 54.156H272.747V51.5962L271.366 53.7513L271.997 54.156ZM269.477 56.424L269.124 55.7622L269.118 55.7656L269.477 56.424ZM261.305 56.028L260.9 56.6589L260.908 56.664L261.305 56.028ZM258.101 52.392L257.426 52.7193L257.433 52.7315L258.101 52.392ZM270.701 43.32L270.157 43.8354L270.164 43.843L270.701 43.32ZM264.473 43.32L263.936 42.797L263.936 42.7972L264.473 43.32ZM264.473 50.592L263.922 51.1001L263.929 51.1077L263.936 51.115L264.473 50.592ZM270.701 50.592L270.164 50.0689L270.157 50.0766L270.701 50.592ZM257.699 46.92C257.699 44.9496 258.066 43.2547 258.774 41.8153L257.429 41.1527C256.601 42.8333 256.199 44.7624 256.199 46.92H257.699ZM258.77 41.8235C259.507 40.3722 260.486 39.2803 261.703 38.52L260.908 37.248C259.436 38.1677 258.28 39.4758 257.433 41.1445L258.77 41.8235ZM261.703 38.52C262.922 37.7579 264.283 37.374 265.805 37.374V35.874C264.015 35.874 262.377 36.3301 260.908 37.248L261.703 38.52ZM265.805 37.374C267.118 37.374 268.226 37.6403 269.154 38.1464L269.873 36.8296C268.688 36.1837 267.325 35.874 265.805 35.874V37.374ZM269.16 38.1498C270.137 38.6704 270.86 39.3389 271.359 40.1491L272.636 39.3629C271.983 38.3011 271.05 37.4576 269.866 36.8262L269.16 38.1498ZM272.747 39.756V36.912H271.247V39.756H272.747ZM271.997 37.662H278.153V36.162H271.997V37.662ZM277.403 36.912V57H278.903V36.912H277.403ZM278.153 56.25H271.997V57.75H278.153V56.25ZM272.747 57V54.156H271.247V57H272.747ZM271.366 53.7513C270.842 54.5685 270.103 55.2404 269.124 55.7622L269.83 57.0858C271.012 56.4556 271.953 55.6155 272.629 54.5607L271.366 53.7513ZM269.118 55.7656C268.19 56.2717 267.082 56.538 265.769 56.538V58.038C267.289 58.038 268.652 57.7283 269.837 57.0824L269.118 55.7656ZM265.769 56.538C264.274 56.538 262.924 56.1552 261.703 55.392L260.908 56.664C262.375 57.5808 264.001 58.038 265.769 58.038V56.538ZM261.711 55.3971C260.489 54.6119 259.508 53.5053 258.77 52.0525L257.433 52.7315C258.279 54.3987 259.433 55.7161 260.9 56.6589L261.711 55.3971ZM258.776 52.0648C258.066 50.5989 257.699 48.8901 257.699 46.92H256.199C256.199 49.0779 256.601 51.0171 257.427 52.7192L258.776 52.0648ZM272.747 46.956C272.747 45.274 272.27 43.8568 271.239 42.797L270.164 43.843C270.861 44.5592 271.247 45.566 271.247 46.956H272.747ZM271.246 42.8046C270.264 41.7666 269.035 41.238 267.605 41.238V42.738C268.624 42.738 269.458 43.0974 270.157 43.8354L271.246 42.8046ZM267.605 41.238C266.176 41.238 264.939 41.7659 263.936 42.797L265.011 43.843C265.736 43.0981 266.587 42.738 267.605 42.738V41.238ZM263.936 42.7972C262.925 43.8368 262.463 45.2448 262.463 46.92H263.963C263.963 45.5232 264.342 44.5312 265.011 43.8428L263.936 42.7972ZM262.463 46.92C262.463 48.5972 262.926 50.0185 263.922 51.1001L265.025 50.0839C264.341 49.3415 263.963 48.3148 263.963 46.92H262.463ZM263.936 51.115C264.939 52.1461 266.176 52.674 267.605 52.674V51.174C266.587 51.174 265.736 50.8139 265.011 50.069L263.936 51.115ZM267.605 52.674C269.035 52.674 270.264 52.1454 271.246 51.1074L270.157 50.0766C269.458 50.8146 268.624 51.174 267.605 51.174V52.674ZM271.239 51.115C272.27 50.0552 272.747 48.638 272.747 46.956H271.247C271.247 48.346 270.861 49.3528 270.164 50.069L271.239 51.115Z" fill="#58D68D"/>
</svg>
